General
Complete name                    : Dommeren(2005).mkv
Format                           : Matroska
File size                        : 1.38 GiB
Duration                         : 1h 26mn
Overall bit rate                 : 2 289 Kbps


Video
ID                               : 1
Format                           : AVC

Duration                         : 1h 26mn
Bit rate                         : 1 790 Kbps
Nominal bit rate                 : 1 817 Kbps
Width                            : 718 pixels
Height                           : 436 pixels
Display aspect ratio             : 2.35
Frame rate                       : 25.000 fps
Resolution                       : 24 bits
Colorimetry                      : 4:2:0
Scan type                        : Progressive
Bits/(Pixel*Frame)               : 0.229
Stream size                      : 1.08 GiB (78%)
Writing library                  : x264 core 79


Audio
ID                               : 2
Format                           : AC-3
Format/Info                      : Audio Coding 3
Codec ID                         : A_AC3
Duration                         : 1h 26mn
Bit rate mode                    : Constant
Bit rate                         : 448 Kbps
Channel(s)                       : 6 channels
Channel positions                : Front: L C R, Surround: L R, LFE
Sampling rate                    : 48.0 KHz
Stream size                      : 277 MiB (20%)
Language                         : Danish

Text #1
Language                         : Danish

Text #2
Language                         : Danish

Text #3
Language                         : Finnish

Text #4
Language                         : Norwegian

Text #5
Language                         : Swedish

Text #6
Language                         : English